<svg width="504" height="124" viewBox="0 0 504 124" fill="none" xmlns="http://www.w3.org/2000/svg">
<path d="M14.189 -0.00800133V67H0.749001V-0.00800133H14.189ZM51.0838 67.864C45.9638 67.864 41.3558 66.744 37.2598 64.504C33.1638 62.2 29.9318 58.968 27.5638 54.808C25.2598 50.648 24.1078 45.848 24.1078 40.408C24.1078 34.968 25.2918 30.168 27.6598 26.008C30.0918 21.848 33.3878 18.648 37.5478 16.408C41.7078 14.104 46.3478 12.952 51.4678 12.952C56.5878 12.952 61.2278 14.104 65.3878 16.408C69.5478 18.648 72.8118 21.848 75.1798 26.008C77.6118 30.168 78.8278 34.968 78.8278 40.408C78.8278 45.848 77.5798 50.648 75.0837 54.808C72.6518 58.968 69.3238 62.2 65.0998 64.504C60.9398 66.744 56.2678 67.864 51.0838 67.864ZM51.0838 56.152C53.5158 56.152 55.7878 55.576 57.8998 54.424C60.0758 53.208 61.8038 51.416 63.0838 49.048C64.3638 46.68 65.0038 43.8 65.0038 40.408C65.0038 35.352 63.6598 31.48 60.9718 28.792C58.3478 26.04 55.1158 24.664 51.2758 24.664C47.4358 24.664 44.2038 26.04 41.5798 28.792C39.0198 31.48 37.7398 35.352 37.7398 40.408C37.7398 45.464 38.9878 49.368 41.4838 52.12C44.0438 54.808 47.2438 56.152 51.0838 56.152ZM134.287 -0.00800133V10.84H116.431V67H102.991V10.84H85.1345V-0.00800133H134.287ZM189.079 67.864C185.047 67.864 181.431 67.192 178.231 65.848C175.031 64.44 172.503 62.52 170.647 60.088C168.791 57.592 167.767 54.744 167.575 51.544H176.599C176.855 54.168 178.071 56.312 180.247 57.976C182.487 59.64 185.399 60.472 188.983 60.472C192.311 60.472 194.935 59.736 196.855 58.264C198.775 56.792 199.735 54.936 199.735 52.696C199.735 50.392 198.711 48.696 196.663 47.608C194.615 46.456 191.447 45.336 187.159 44.248C183.255 43.224 180.055 42.2 177.559 41.176C175.127 40.088 173.015 38.52 171.223 36.472C169.495 34.36 168.631 31.608 168.631 28.216C168.631 25.528 169.431 23.064 171.031 20.824C172.631 18.584 174.903 16.824 177.847 15.544C180.791 14.2 184.151 13.528 187.927 13.528C193.751 13.528 198.455 15 202.039 17.944C205.623 20.888 207.543 24.92 207.799 30.04H199.063C198.871 27.288 197.751 25.08 195.703 23.416C193.719 21.752 191.031 20.92 187.639 20.92C184.503 20.92 182.007 21.592 180.151 22.936C178.295 24.28 177.367 26.04 177.367 28.216C177.367 29.944 177.911 31.384 178.999 32.536C180.151 33.624 181.559 34.52 183.223 35.224C184.951 35.864 187.319 36.6 190.327 37.432C194.103 38.456 197.175 39.48 199.543 40.504C201.911 41.464 203.927 42.936 205.591 44.92C207.319 46.904 208.215 49.496 208.279 52.696C208.279 55.576 207.479 58.168 205.879 60.472C204.279 62.776 202.007 64.6 199.063 65.944C196.183 67.224 192.855 67.864 189.079 67.864ZM265.923 14.392L234.243 91.768H225.219L235.587 66.424L214.371 14.392H224.067L240.579 57.016L256.899 14.392H265.923ZM293.329 67.864C289.297 67.864 285.681 67.192 282.481 65.848C279.281 64.44 276.753 62.52 274.897 60.088C273.041 57.592 272.017 54.744 271.825 51.544H280.849C281.105 54.168 282.321 56.312 284.497 57.976C286.737 59.64 289.649 60.472 293.233 60.472C296.561 60.472 299.185 59.736 301.105 58.264C303.025 56.792 303.985 54.936 303.985 52.696C303.985 50.392 302.961 48.696 300.913 47.608C298.865 46.456 295.697 45.336 291.409 44.248C287.505 43.224 284.305 42.2 281.809 41.176C279.377 40.088 277.265 38.52 275.473 36.472C273.745 34.36 272.881 31.608 272.881 28.216C272.881 25.528 273.681 23.064 275.281 20.824C276.881 18.584 279.153 16.824 282.097 15.544C285.041 14.2 288.401 13.528 292.177 13.528C298.001 13.528 302.705 15 306.289 17.944C309.873 20.888 311.793 24.92 312.049 30.04H303.313C303.121 27.288 302.001 25.08 299.953 23.416C297.969 21.752 295.281 20.92 291.889 20.92C288.753 20.92 286.257 21.592 284.401 22.936C282.545 24.28 281.617 26.04 281.617 28.216C281.617 29.944 282.161 31.384 283.249 32.536C284.401 33.624 285.809 34.52 287.473 35.224C289.201 35.864 291.569 36.6 294.577 37.432C298.353 38.456 301.425 39.48 303.793 40.504C306.161 41.464 308.177 42.936 309.841 44.92C311.569 46.904 312.465 49.496 312.529 52.696C312.529 55.576 311.729 58.168 310.129 60.472C308.529 62.776 306.257 64.6 303.313 65.944C300.433 67.224 297.105 67.864 293.329 67.864ZM335.517 21.592V52.6C335.517 55.16 336.061 56.984 337.149 58.072C338.237 59.096 340.125 59.608 342.813 59.608H349.245V67H341.373C336.509 67 332.861 65.88 330.429 63.64C327.997 61.4 326.781 57.72 326.781 52.6V21.592H319.965V14.392H326.781V1.144H335.517V14.392H349.245V21.592H335.517ZM407.83 38.68C407.83 40.344 407.734 42.104 407.542 43.96H365.494C365.814 49.144 367.574 53.208 370.774 56.152C374.038 59.032 377.974 60.472 382.582 60.472C386.358 60.472 389.494 59.608 391.99 57.88C394.55 56.088 396.342 53.72 397.366 50.776H406.774C405.366 55.832 402.55 59.96 398.326 63.16C394.102 66.296 388.854 67.864 382.582 67.864C377.59 67.864 373.11 66.744 369.142 64.504C365.238 62.264 362.166 59.096 359.926 55C357.686 50.84 356.566 46.04 356.566 40.6C356.566 35.16 357.654 30.392 359.83 26.296C362.006 22.2 365.046 19.064 368.95 16.888C372.918 14.648 377.462 13.528 382.582 13.528C387.574 13.528 391.99 14.616 395.83 16.792C399.67 18.968 402.614 21.976 404.662 25.816C406.774 29.592 407.83 33.88 407.83 38.68ZM398.806 36.856C398.806 33.528 398.07 30.68 396.598 28.312C395.126 25.88 393.11 24.056 390.55 22.84C388.054 21.56 385.27 20.92 382.198 20.92C377.782 20.92 374.006 22.328 370.87 25.144C367.798 27.96 366.038 31.864 365.59 36.856H398.806ZM482.625 13.432C486.721 13.432 490.369 14.296 493.569 16.024C496.769 17.688 499.297 20.216 501.153 23.608C503.009 27 503.937 31.128 503.937 35.992V67H495.297V37.24C495.297 31.992 493.985 27.992 491.361 25.24C488.801 22.424 485.313 21.016 480.897 21.016C476.353 21.016 472.737 22.488 470.049 25.432C467.361 28.312 466.017 32.504 466.017 38.008V67H457.377V37.24C457.377 31.992 456.065 27.992 453.441 25.24C450.881 22.424 447.393 21.016 442.977 21.016C438.433 21.016 434.817 22.488 432.129 25.432C429.441 28.312 428.097 32.504 428.097 38.008V67H419.361V14.392H428.097V21.976C429.825 19.224 432.129 17.112 435.009 15.64C437.953 14.168 441.185 13.432 444.705 13.432C449.121 13.432 453.025 14.424 456.417 16.408C459.809 18.392 462.337 21.304 464.001 25.144C465.473 21.432 467.905 18.552 471.297 16.504C474.689 14.456 478.465 13.432 482.625 13.432ZM61.1025 92.536V93.752H54.7025V115H53.2625V93.752H46.8625V92.536H61.1025ZM80.1783 105.144C80.1783 105.912 80.1569 106.488 80.1143 106.872H65.1063C65.1489 108.429 65.4903 109.741 66.1302 110.808C66.7703 111.875 67.6129 112.675 68.6583 113.208C69.7036 113.741 70.8449 114.008 72.0823 114.008C73.7889 114.008 75.2183 113.592 76.3703 112.76C77.5223 111.907 78.2476 110.755 78.5463 109.304H80.0503C79.7089 111.075 78.8343 112.515 77.4263 113.624C76.0183 114.712 74.2369 115.256 72.0823 115.256C70.4609 115.256 69.0103 114.893 67.7303 114.168C66.4503 113.443 65.4476 112.408 64.7223 111.064C63.9969 109.699 63.6343 108.109 63.6343 106.296C63.6343 104.483 63.9863 102.904 64.6903 101.56C65.4156 100.216 66.4183 99.192 67.6983 98.488C68.9783 97.7627 70.4396 97.4 72.0823 97.4C73.7463 97.4 75.1863 97.7627 76.4023 98.488C77.6396 99.192 78.5783 100.141 79.2183 101.336C79.8583 102.509 80.1783 103.779 80.1783 105.144ZM78.7383 105.688C78.8023 104.152 78.5249 102.851 77.9062 101.784C77.3089 100.717 76.4876 99.928 75.4423 99.416C74.3969 98.8827 73.2663 98.616 72.0503 98.616C70.8343 98.616 69.7036 98.8827 68.6583 99.416C67.6343 99.928 66.7916 100.717 66.1302 101.784C65.4903 102.851 65.1489 104.152 65.1063 105.688H78.7383ZM83.6343 106.296C83.6343 104.483 83.9863 102.904 84.6903 101.56C85.4156 100.216 86.4076 99.192 87.6663 98.488C88.9463 97.7627 90.4076 97.4 92.0503 97.4C94.2263 97.4 96.0076 97.944 97.3943 99.032C98.8023 100.12 99.6769 101.581 100.018 103.416H98.5143C98.2369 101.923 97.5116 100.749 96.3383 99.896C95.1863 99.0427 93.7569 98.616 92.0503 98.616C90.7703 98.616 89.6076 98.904 88.5623 99.48C87.5169 100.035 86.6743 100.899 86.0343 102.072C85.4156 103.224 85.1063 104.632 85.1063 106.296C85.1063 107.981 85.4156 109.4 86.0343 110.552C86.6743 111.704 87.5169 112.568 88.5623 113.144C89.6076 113.72 90.7703 114.008 92.0503 114.008C93.7569 114.008 95.1863 113.581 96.3383 112.728C97.5116 111.875 98.2369 110.701 98.5143 109.208H100.018C99.6769 111.021 98.8023 112.483 97.3943 113.592C95.9863 114.701 94.2049 115.256 92.0503 115.256C90.4076 115.256 88.9463 114.893 87.6663 114.168C86.4076 113.443 85.4156 112.408 84.6903 111.064C83.9863 109.699 83.6343 108.109 83.6343 106.296ZM118.101 93.528H105.813V102.712C106.389 101.901 107.232 101.24 108.341 100.728C109.451 100.195 110.656 99.928 111.957 99.928C113.685 99.928 115.093 100.28 116.181 100.984C117.291 101.667 118.091 102.563 118.581 103.672C119.072 104.781 119.317 105.987 119.317 107.288C119.317 108.739 119.051 110.061 118.517 111.256C117.984 112.429 117.141 113.379 115.989 114.104C114.859 114.808 113.429 115.16 111.701 115.16C109.611 115.16 107.883 114.595 106.517 113.464C105.173 112.312 104.352 110.765 104.053 108.824H105.461C105.781 110.467 106.496 111.725 107.605 112.6C108.715 113.453 110.08 113.88 111.701 113.88C113.771 113.88 115.328 113.283 116.373 112.088C117.419 110.872 117.941 109.283 117.941 107.32C117.941 105.4 117.408 103.896 116.341 102.808C115.296 101.72 113.792 101.176 111.829 101.176C110.485 101.176 109.28 101.475 108.213 102.072C107.168 102.669 106.357 103.491 105.781 104.536H104.437V92.248H118.101V93.528ZM123.3 103.512C123.3 99.8213 123.834 96.984 124.9 95C125.967 92.9947 127.93 91.992 130.788 91.992C133.626 91.992 135.578 92.9947 136.644 95C137.711 96.984 138.244 99.8213 138.244 103.512C138.244 107.245 137.711 110.125 136.644 112.152C135.578 114.157 133.626 115.16 130.788 115.16C127.93 115.16 125.967 114.157 124.9 112.152C123.834 110.125 123.3 107.245 123.3 103.512ZM136.836 103.512C136.836 101.379 136.676 99.576 136.356 98.104C136.058 96.632 135.46 95.4693 134.564 94.616C133.69 93.7413 132.431 93.304 130.788 93.304C129.146 93.304 127.876 93.7413 126.98 94.616C126.106 95.4693 125.508 96.632 125.188 98.104C124.89 99.576 124.74 101.379 124.74 103.512C124.74 105.688 124.89 107.523 125.188 109.016C125.508 110.488 126.106 111.661 126.98 112.536C127.876 113.411 129.146 113.848 130.788 113.848C132.431 113.848 133.69 113.411 134.564 112.536C135.46 111.661 136.058 110.488 136.356 109.016C136.676 107.523 136.836 105.688 136.836 103.512ZM142.006 113.944C146.017 111.171 149.174 108.493 151.478 105.912C153.804 103.331 154.966 100.856 154.966 98.488C154.966 96.9307 154.55 95.6613 153.718 94.68C152.908 93.6987 151.574 93.208 149.718 93.208C147.862 93.208 146.444 93.7733 145.462 94.904C144.481 96.0347 143.926 97.528 143.798 99.384H142.39C142.54 97.0373 143.265 95.2133 144.566 93.912C145.868 92.6107 147.585 91.96 149.718 91.96C151.66 91.96 153.249 92.504 154.486 93.592C155.745 94.68 156.374 96.3013 156.374 98.456C156.374 101.123 155.148 103.811 152.694 106.52C150.262 109.229 147.478 111.619 144.342 113.688H157.11V114.904H142.006V113.944ZM179.656 102.36V103.608H167.623V102.36H179.656ZM196.22 102.2C196.754 100.792 197.66 99.64 198.94 98.744C200.22 97.848 201.767 97.4 203.58 97.4C205.202 97.4 206.642 97.7627 207.9 98.488C209.18 99.2133 210.172 100.248 210.876 101.592C211.602 102.936 211.964 104.504 211.964 106.296C211.964 108.088 211.602 109.667 210.876 111.032C210.172 112.376 209.18 113.421 207.9 114.168C206.642 114.893 205.202 115.256 203.58 115.256C201.767 115.256 200.21 114.808 198.908 113.912C197.628 113.016 196.732 111.864 196.22 110.456V115H194.78V91.32H196.22V102.2ZM210.492 106.296C210.492 104.717 210.194 103.352 209.596 102.2C208.999 101.048 208.156 100.173 207.068 99.576C206.002 98.9573 204.764 98.648 203.356 98.648C202.012 98.648 200.796 98.968 199.708 99.608C198.62 100.227 197.767 101.123 197.148 102.296C196.53 103.448 196.22 104.781 196.22 106.296C196.22 107.832 196.53 109.187 197.148 110.36C197.767 111.512 198.62 112.408 199.708 113.048C200.796 113.667 202.012 113.976 203.356 113.976C204.764 113.976 206.002 113.667 207.068 113.048C208.156 112.429 208.999 111.544 209.596 110.392C210.194 109.24 210.492 107.875 210.492 106.296ZM229.88 97.624L219.768 123.16H218.296L221.528 115L214.232 97.624H215.799L222.328 113.4L228.408 97.624H229.88ZM257.26 94.84C259.521 94.84 261.505 95.288 263.212 96.184C264.94 97.08 266.273 98.328 267.212 99.928C268.172 101.528 268.652 103.363 268.652 105.432C268.652 107.096 268.396 108.675 267.884 110.168C267.393 111.661 266.679 112.877 265.74 113.816C264.801 114.733 263.692 115.192 262.412 115.192C261.388 115.192 260.62 114.883 260.108 114.264C259.617 113.624 259.393 112.781 259.436 111.736C258.796 112.824 257.943 113.677 256.876 114.296C255.831 114.893 254.711 115.192 253.516 115.192C251.916 115.192 250.657 114.701 249.74 113.72C248.844 112.739 248.396 111.416 248.396 109.752C248.396 108.195 248.716 106.744 249.356 105.4C250.017 104.035 250.935 102.947 252.108 102.136C253.281 101.304 254.604 100.888 256.076 100.888C257.228 100.888 258.188 101.165 258.956 101.72C259.745 102.275 260.279 103.075 260.556 104.12L261.036 101.304H262.316L260.684 110.68C260.62 111.021 260.588 111.363 260.588 111.704C260.588 112.451 260.759 113.037 261.1 113.464C261.463 113.891 261.975 114.104 262.636 114.104C263.596 114.104 264.439 113.677 265.164 112.824C265.889 111.971 266.444 110.893 266.828 109.592C267.212 108.269 267.404 106.936 267.404 105.592C267.404 103.629 266.977 101.923 266.124 100.472C265.292 99.0213 264.097 97.9013 262.54 97.112C260.983 96.3227 259.159 95.928 257.068 95.928C254.487 95.928 252.14 96.5787 250.028 97.88C247.916 99.16 246.252 100.909 245.036 103.128C243.841 105.325 243.244 107.736 243.244 110.36C243.244 112.365 243.66 114.083 244.492 115.512C245.324 116.963 246.508 118.072 248.044 118.84C249.601 119.608 251.404 119.992 253.452 119.992C255.351 119.992 257.111 119.64 258.732 118.936L258.956 120.024C257.143 120.749 255.201 121.112 253.132 121.112C250.935 121.112 248.993 120.675 247.308 119.8C245.623 118.947 244.311 117.72 243.372 116.12C242.433 114.541 241.964 112.685 241.964 110.552C241.964 107.629 242.625 104.973 243.948 102.584C245.271 100.195 247.095 98.3067 249.42 96.92C251.745 95.5333 254.359 94.84 257.26 94.84ZM253.9 114.008C254.881 114.008 255.799 113.763 256.652 113.272C257.505 112.76 258.22 112.035 258.796 111.096C259.393 110.136 259.777 109.016 259.948 107.736C260.033 107.309 260.076 106.861 260.076 106.392C260.076 105.091 259.724 104.045 259.02 103.256C258.337 102.445 257.335 102.04 256.012 102.04C254.775 102.04 253.676 102.403 252.716 103.128C251.777 103.832 251.052 104.76 250.54 105.912C250.028 107.064 249.772 108.28 249.772 109.56C249.772 110.925 250.135 112.013 250.86 112.824C251.585 113.613 252.599 114.008 253.9 114.008ZM275.189 101.208C275.616 99.928 276.373 98.9573 277.461 98.296C278.549 97.6133 279.936 97.272 281.621 97.272V98.776H281.141C279.434 98.776 278.016 99.2667 276.885 100.248C275.754 101.208 275.189 102.787 275.189 104.984V115H273.749V97.624H275.189V101.208ZM292.809 97.272C294.857 97.272 296.531 97.912 297.833 99.192C299.134 100.451 299.785 102.328 299.785 104.824V115H298.377V104.92C298.377 102.851 297.854 101.272 296.809 100.184C295.763 99.0747 294.345 98.52 292.553 98.52C290.675 98.52 289.171 99.1173 288.041 100.312C286.931 101.507 286.377 103.277 286.377 105.624V115H284.937V91.32H286.377V101.304C286.867 100.003 287.689 99.0107 288.841 98.328C289.993 97.624 291.315 97.272 292.809 97.272ZM305.61 93.752C305.269 93.752 304.981 93.6453 304.746 93.432C304.511 93.1973 304.394 92.888 304.394 92.504C304.394 92.1413 304.511 91.8427 304.746 91.608C304.981 91.3733 305.269 91.256 305.61 91.256C305.951 91.256 306.239 91.3733 306.474 91.608C306.709 91.8427 306.826 92.1413 306.826 92.504C306.826 92.888 306.709 93.1973 306.474 93.432C306.239 93.6453 305.951 93.752 305.61 93.752ZM306.314 97.624V115H304.874V97.624H306.314ZM310.697 106.296C310.697 104.504 311.049 102.936 311.753 101.592C312.478 100.248 313.47 99.2133 314.729 98.488C316.009 97.7627 317.459 97.4 319.081 97.4C320.915 97.4 322.473 97.848 323.753 98.744C325.033 99.64 325.929 100.781 326.441 102.168V97.624H327.881V115H326.441V110.424C325.929 111.832 325.022 112.995 323.721 113.912C322.441 114.808 320.894 115.256 319.081 115.256C317.459 115.256 316.009 114.893 314.729 114.168C313.47 113.421 312.478 112.376 311.753 111.032C311.049 109.667 310.697 108.088 310.697 106.296ZM326.441 106.296C326.441 104.781 326.121 103.448 325.481 102.296C324.862 101.123 324.009 100.227 322.921 99.608C321.833 98.968 320.617 98.648 319.273 98.648C317.865 98.648 316.627 98.9573 315.561 99.576C314.494 100.173 313.662 101.048 313.065 102.2C312.467 103.352 312.169 104.717 312.169 106.296C312.169 107.875 312.467 109.24 313.065 110.392C313.662 111.544 314.494 112.429 315.561 113.048C316.649 113.667 317.886 113.976 319.273 113.976C320.617 113.976 321.833 113.667 322.921 113.048C324.03 112.408 324.894 111.512 325.513 110.36C326.131 109.187 326.441 107.832 326.441 106.296ZM340.964 97.272C343.033 97.272 344.719 97.912 346.02 99.192C347.321 100.451 347.972 102.328 347.972 104.824V115H346.564V104.92C346.564 102.851 346.041 101.272 344.996 100.184C343.951 99.0747 342.532 98.52 340.74 98.52C338.863 98.52 337.359 99.1173 336.228 100.312C335.119 101.507 334.564 103.277 334.564 105.624V115H333.124V97.624H334.564V101.304C335.055 100.003 335.865 99.0107 336.996 98.328C338.148 97.624 339.471 97.272 340.964 97.272ZM354.502 102.2C354.992 100.792 355.878 99.64 357.158 98.744C358.459 97.848 360.027 97.4 361.862 97.4C363.483 97.4 364.923 97.7627 366.182 98.488C367.462 99.2133 368.454 100.248 369.158 101.592C369.883 102.936 370.246 104.504 370.246 106.296C370.246 108.088 369.883 109.667 369.158 111.032C368.454 112.376 367.462 113.421 366.182 114.168C364.923 114.893 363.483 115.256 361.862 115.256C360.048 115.256 358.491 114.808 357.19 113.912C355.91 112.995 355.014 111.843 354.502 110.456V123.192H353.062V97.624H354.502V102.2ZM368.774 106.296C368.774 104.717 368.475 103.352 367.878 102.2C367.28 101.048 366.438 100.173 365.35 99.576C364.283 98.9573 363.046 98.648 361.638 98.648C360.294 98.648 359.078 98.968 357.99 99.608C356.902 100.227 356.048 101.123 355.43 102.296C354.811 103.448 354.502 104.781 354.502 106.296C354.502 107.832 354.811 109.187 355.43 110.36C356.048 111.512 356.902 112.408 357.99 113.048C359.078 113.667 360.294 113.976 361.638 113.976C363.046 113.976 364.283 113.667 365.35 113.048C366.438 112.429 367.28 111.544 367.878 110.392C368.475 109.24 368.774 107.875 368.774 106.296ZM373.697 106.296C373.697 104.504 374.049 102.936 374.753 101.592C375.478 100.248 376.47 99.2133 377.729 98.488C379.009 97.7627 380.459 97.4 382.081 97.4C383.915 97.4 385.473 97.848 386.753 98.744C388.033 99.64 388.929 100.781 389.441 102.168V97.624H390.881V115H389.441V110.424C388.929 111.832 388.022 112.995 386.721 113.912C385.441 114.808 383.894 115.256 382.081 115.256C380.459 115.256 379.009 114.893 377.729 114.168C376.47 113.421 375.478 112.376 374.753 111.032C374.049 109.667 373.697 108.088 373.697 106.296ZM389.441 106.296C389.441 104.781 389.121 103.448 388.481 102.296C387.862 101.123 387.009 100.227 385.921 99.608C384.833 98.968 383.617 98.648 382.273 98.648C380.865 98.648 379.627 98.9573 378.561 99.576C377.494 100.173 376.662 101.048 376.065 102.2C375.467 103.352 375.169 104.717 375.169 106.296C375.169 107.875 375.467 109.24 376.065 110.392C376.662 111.544 377.494 112.429 378.561 113.048C379.649 113.667 380.886 113.976 382.273 113.976C383.617 113.976 384.833 113.667 385.921 113.048C387.03 112.408 387.894 111.512 388.513 110.36C389.131 109.187 389.441 107.832 389.441 106.296ZM397.564 102.2C398.097 100.792 399.004 99.64 400.284 98.744C401.564 97.848 403.111 97.4 404.924 97.4C406.545 97.4 407.985 97.7627 409.244 98.488C410.524 99.2133 411.516 100.248 412.22 101.592C412.945 102.936 413.308 104.504 413.308 106.296C413.308 108.088 412.945 109.667 412.22 111.032C411.516 112.376 410.524 113.421 409.244 114.168C407.985 114.893 406.545 115.256 404.924 115.256C403.111 115.256 401.553 114.808 400.252 113.912C398.972 113.016 398.076 111.864 397.564 110.456V115H396.124V91.32H397.564V102.2ZM411.836 106.296C411.836 104.717 411.537 103.352 410.94 102.2C410.343 101.048 409.5 100.173 408.412 99.576C407.345 98.9573 406.108 98.648 404.7 98.648C403.356 98.648 402.14 98.968 401.052 99.608C399.964 100.227 399.111 101.123 398.492 102.296C397.873 103.448 397.564 104.781 397.564 106.296C397.564 107.832 397.873 109.187 398.492 110.36C399.111 111.512 399.964 112.408 401.052 113.048C402.14 113.667 403.356 113.976 404.7 113.976C406.108 113.976 407.345 113.667 408.412 113.048C409.5 112.429 410.343 111.544 410.94 110.392C411.537 109.24 411.836 107.875 411.836 106.296ZM419.095 91.32V115H417.655V91.32H419.095ZM432.022 115.256C430.401 115.256 428.939 114.893 427.638 114.168C426.337 113.443 425.313 112.408 424.566 111.064C423.841 109.699 423.478 108.109 423.478 106.296C423.478 104.504 423.851 102.936 424.598 101.592C425.345 100.227 426.369 99.192 427.67 98.488C428.993 97.7627 430.465 97.4 432.086 97.4C433.707 97.4 435.169 97.7627 436.47 98.488C437.771 99.192 438.785 100.216 439.51 101.56C440.257 102.904 440.63 104.483 440.63 106.296C440.63 108.109 440.257 109.699 439.51 111.064C438.763 112.408 437.729 113.443 436.406 114.168C435.105 114.893 433.643 115.256 432.022 115.256ZM432.022 113.976C433.281 113.976 434.454 113.699 435.542 113.144C436.651 112.568 437.537 111.704 438.198 110.552C438.859 109.4 439.19 107.981 439.19 106.296C439.19 104.632 438.859 103.224 438.198 102.072C437.537 100.92 436.662 100.067 435.574 99.512C434.486 98.936 433.313 98.648 432.054 98.648C430.795 98.648 429.622 98.936 428.534 99.512C427.467 100.067 426.603 100.92 425.942 102.072C425.281 103.224 424.95 104.632 424.95 106.296C424.95 107.981 425.27 109.4 425.91 110.552C426.571 111.704 427.435 112.568 428.502 113.144C429.59 113.699 430.763 113.976 432.022 113.976ZM443.111 93.56V92.248H447.847V115H446.407V93.56H443.111ZM451.392 93.56V92.248H456.128V115H454.688V93.56H451.392Z" fill="black"/>
<path d="M14.189 -0.00800133V67H0.749001V-0.00800133H14.189ZM51.0838 67.864C45.9638 67.864 41.3558 66.744 37.2598 64.504C33.1638 62.2 29.9318 58.968 27.5638 54.808C25.2598 50.648 24.1078 45.848 24.1078 40.408C24.1078 34.968 25.2918 30.168 27.6598 26.008C30.0918 21.848 33.3878 18.648 37.5478 16.408C41.7078 14.104 46.3478 12.952 51.4678 12.952C56.5878 12.952 61.2278 14.104 65.3878 16.408C69.5478 18.648 72.8118 21.848 75.1798 26.008C77.6118 30.168 78.8278 34.968 78.8278 40.408C78.8278 45.848 77.5798 50.648 75.0837 54.808C72.6518 58.968 69.3238 62.2 65.0998 64.504C60.9398 66.744 56.2678 67.864 51.0838 67.864ZM51.0838 56.152C53.5158 56.152 55.7878 55.576 57.8998 54.424C60.0758 53.208 61.8038 51.416 63.0838 49.048C64.3638 46.68 65.0038 43.8 65.0038 40.408C65.0038 35.352 63.6598 31.48 60.9718 28.792C58.3478 26.04 55.1158 24.664 51.2758 24.664C47.4358 24.664 44.2038 26.04 41.5798 28.792C39.0198 31.48 37.7398 35.352 37.7398 40.408C37.7398 45.464 38.9878 49.368 41.4838 52.12C44.0438 54.808 47.2438 56.152 51.0838 56.152ZM134.287 -0.00800133V10.84H116.431V67H102.991V10.84H85.1345V-0.00800133H134.287ZM189.079 67.864C185.047 67.864 181.431 67.192 178.231 65.848C175.031 64.44 172.503 62.52 170.647 60.088C168.791 57.592 167.767 54.744 167.575 51.544H176.599C176.855 54.168 178.071 56.312 180.247 57.976C182.487 59.64 185.399 60.472 188.983 60.472C192.311 60.472 194.935 59.736 196.855 58.264C198.775 56.792 199.735 54.936 199.735 52.696C199.735 50.392 198.711 48.696 196.663 47.608C194.615 46.456 191.447 45.336 187.159 44.248C183.255 43.224 180.055 42.2 177.559 41.176C175.127 40.088 173.015 38.52 171.223 36.472C169.495 34.36 168.631 31.608 168.631 28.216C168.631 25.528 169.431 23.064 171.031 20.824C172.631 18.584 174.903 16.824 177.847 15.544C180.791 14.2 184.151 13.528 187.927 13.528C193.751 13.528 198.455 15 202.039 17.944C205.623 20.888 207.543 24.92 207.799 30.04H199.063C198.871 27.288 197.751 25.08 195.703 23.416C193.719 21.752 191.031 20.92 187.639 20.92C184.503 20.92 182.007 21.592 180.151 22.936C178.295 24.28 177.367 26.04 177.367 28.216C177.367 29.944 177.911 31.384 178.999 32.536C180.151 33.624 181.559 34.52 183.223 35.224C184.951 35.864 187.319 36.6 190.327 37.432C194.103 38.456 197.175 39.48 199.543 40.504C201.911 41.464 203.927 42.936 205.591 44.92C207.319 46.904 208.215 49.496 208.279 52.696C208.279 55.576 207.479 58.168 205.879 60.472C204.279 62.776 202.007 64.6 199.063 65.944C196.183 67.224 192.855 67.864 189.079 67.864ZM265.923 14.392L234.243 91.768H225.219L235.587 66.424L214.371 14.392H224.067L240.579 57.016L256.899 14.392H265.923ZM293.329 67.864C289.297 67.864 285.681 67.192 282.481 65.848C279.281 64.44 276.753 62.52 274.897 60.088C273.041 57.592 272.017 54.744 271.825 51.544H280.849C281.105 54.168 282.321 56.312 284.497 57.976C286.737 59.64 289.649 60.472 293.233 60.472C296.561 60.472 299.185 59.736 301.105 58.264C303.025 56.792 303.985 54.936 303.985 52.696C303.985 50.392 302.961 48.696 300.913 47.608C298.865 46.456 295.697 45.336 291.409 44.248C287.505 43.224 284.305 42.2 281.809 41.176C279.377 40.088 277.265 38.52 275.473 36.472C273.745 34.36 272.881 31.608 272.881 28.216C272.881 25.528 273.681 23.064 275.281 20.824C276.881 18.584 279.153 16.824 282.097 15.544C285.041 14.2 288.401 13.528 292.177 13.528C298.001 13.528 302.705 15 306.289 17.944C309.873 20.888 311.793 24.92 312.049 30.04H303.313C303.121 27.288 302.001 25.08 299.953 23.416C297.969 21.752 295.281 20.92 291.889 20.92C288.753 20.92 286.257 21.592 284.401 22.936C282.545 24.28 281.617 26.04 281.617 28.216C281.617 29.944 282.161 31.384 283.249 32.536C284.401 33.624 285.809 34.52 287.473 35.224C289.201 35.864 291.569 36.6 294.577 37.432C298.353 38.456 301.425 39.48 303.793 40.504C306.161 41.464 308.177 42.936 309.841 44.92C311.569 46.904 312.465 49.496 312.529 52.696C312.529 55.576 311.729 58.168 310.129 60.472C308.529 62.776 306.257 64.6 303.313 65.944C300.433 67.224 297.105 67.864 293.329 67.864ZM335.517 21.592V52.6C335.517 55.16 336.061 56.984 337.149 58.072C338.237 59.096 340.125 59.608 342.813 59.608H349.245V67H341.373C336.509 67 332.861 65.88 330.429 63.64C327.997 61.4 326.781 57.72 326.781 52.6V21.592H319.965V14.392H326.781V1.144H335.517V14.392H349.245V21.592H335.517ZM407.83 38.68C407.83 40.344 407.734 42.104 407.542 43.96H365.494C365.814 49.144 367.574 53.208 370.774 56.152C374.038 59.032 377.974 60.472 382.582 60.472C386.358 60.472 389.494 59.608 391.99 57.88C394.55 56.088 396.342 53.72 397.366 50.776H406.774C405.366 55.832 402.55 59.96 398.326 63.16C394.102 66.296 388.854 67.864 382.582 67.864C377.59 67.864 373.11 66.744 369.142 64.504C365.238 62.264 362.166 59.096 359.926 55C357.686 50.84 356.566 46.04 356.566 40.6C356.566 35.16 357.654 30.392 359.83 26.296C362.006 22.2 365.046 19.064 368.95 16.888C372.918 14.648 377.462 13.528 382.582 13.528C387.574 13.528 391.99 14.616 395.83 16.792C399.67 18.968 402.614 21.976 404.662 25.816C406.774 29.592 407.83 33.88 407.83 38.68ZM398.806 36.856C398.806 33.528 398.07 30.68 396.598 28.312C395.126 25.88 393.11 24.056 390.55 22.84C388.054 21.56 385.27 20.92 382.198 20.92C377.782 20.92 374.006 22.328 370.87 25.144C367.798 27.96 366.038 31.864 365.59 36.856H398.806ZM482.625 13.432C486.721 13.432 490.369 14.296 493.569 16.024C496.769 17.688 499.297 20.216 501.153 23.608C503.009 27 503.937 31.128 503.937 35.992V67H495.297V37.24C495.297 31.992 493.985 27.992 491.361 25.24C488.801 22.424 485.313 21.016 480.897 21.016C476.353 21.016 472.737 22.488 470.049 25.432C467.361 28.312 466.017 32.504 466.017 38.008V67H457.377V37.24C457.377 31.992 456.065 27.992 453.441 25.24C450.881 22.424 447.393 21.016 442.977 21.016C438.433 21.016 434.817 22.488 432.129 25.432C429.441 28.312 428.097 32.504 428.097 38.008V67H419.361V14.392H428.097V21.976C429.825 19.224 432.129 17.112 435.009 15.64C437.953 14.168 441.185 13.432 444.705 13.432C449.121 13.432 453.025 14.424 456.417 16.408C459.809 18.392 462.337 21.304 464.001 25.144C465.473 21.432 467.905 18.552 471.297 16.504C474.689 14.456 478.465 13.432 482.625 13.432ZM61.1025 92.536V93.752H54.7025V115H53.2625V93.752H46.8625V92.536H61.1025ZM80.1783 105.144C80.1783 105.912 80.1569 106.488 80.1143 106.872H65.1063C65.1489 108.429 65.4903 109.741 66.1302 110.808C66.7703 111.875 67.6129 112.675 68.6583 113.208C69.7036 113.741 70.8449 114.008 72.0823 114.008C73.7889 114.008 75.2183 113.592 76.3703 112.76C77.5223 111.907 78.2476 110.755 78.5463 109.304H80.0503C79.7089 111.075 78.8343 112.515 77.4263 113.624C76.0183 114.712 74.2369 115.256 72.0823 115.256C70.4609 115.256 69.0103 114.893 67.7303 114.168C66.4503 113.443 65.4476 112.408 64.7223 111.064C63.9969 109.699 63.6343 108.109 63.6343 106.296C63.6343 104.483 63.9863 102.904 64.6903 101.56C65.4156 100.216 66.4183 99.192 67.6983 98.488C68.9783 97.7627 70.4396 97.4 72.0823 97.4C73.7463 97.4 75.1863 97.7627 76.4023 98.488C77.6396 99.192 78.5783 100.141 79.2183 101.336C79.8583 102.509 80.1783 103.779 80.1783 105.144ZM78.7383 105.688C78.8023 104.152 78.5249 102.851 77.9062 101.784C77.3089 100.717 76.4876 99.928 75.4423 99.416C74.3969 98.8827 73.2663 98.616 72.0503 98.616C70.8343 98.616 69.7036 98.8827 68.6583 99.416C67.6343 99.928 66.7916 100.717 66.1302 101.784C65.4903 102.851 65.1489 104.152 65.1063 105.688H78.7383ZM83.6343 106.296C83.6343 104.483 83.9863 102.904 84.6903 101.56C85.4156 100.216 86.4076 99.192 87.6663 98.488C88.9463 97.7627 90.4076 97.4 92.0503 97.4C94.2263 97.4 96.0076 97.944 97.3943 99.032C98.8023 100.12 99.6769 101.581 100.018 103.416H98.5143C98.2369 101.923 97.5116 100.749 96.3383 99.896C95.1863 99.0427 93.7569 98.616 92.0503 98.616C90.7703 98.616 89.6076 98.904 88.5623 99.48C87.5169 100.035 86.6743 100.899 86.0343 102.072C85.4156 103.224 85.1063 104.632 85.1063 106.296C85.1063 107.981 85.4156 109.4 86.0343 110.552C86.6743 111.704 87.5169 112.568 88.5623 113.144C89.6076 113.72 90.7703 114.008 92.0503 114.008C93.7569 114.008 95.1863 113.581 96.3383 112.728C97.5116 111.875 98.2369 110.701 98.5143 109.208H100.018C99.6769 111.021 98.8023 112.483 97.3943 113.592C95.9863 114.701 94.2049 115.256 92.0503 115.256C90.4076 115.256 88.9463 114.893 87.6663 114.168C86.4076 113.443 85.4156 112.408 84.6903 111.064C83.9863 109.699 83.6343 108.109 83.6343 106.296ZM118.101 93.528H105.813V102.712C106.389 101.901 107.232 101.24 108.341 100.728C109.451 100.195 110.656 99.928 111.957 99.928C113.685 99.928 115.093 100.28 116.181 100.984C117.291 101.667 118.091 102.563 118.581 103.672C119.072 104.781 119.317 105.987 119.317 107.288C119.317 108.739 119.051 110.061 118.517 111.256C117.984 112.429 117.141 113.379 115.989 114.104C114.859 114.808 113.429 115.16 111.701 115.16C109.611 115.16 107.883 114.595 106.517 113.464C105.173 112.312 104.352 110.765 104.053 108.824H105.461C105.781 110.467 106.496 111.725 107.605 112.6C108.715 113.453 110.08 113.88 111.701 113.88C113.771 113.88 115.328 113.283 116.373 112.088C117.419 110.872 117.941 109.283 117.941 107.32C117.941 105.4 117.408 103.896 116.341 102.808C115.296 101.72 113.792 101.176 111.829 101.176C110.485 101.176 109.28 101.475 108.213 102.072C107.168 102.669 106.357 103.491 105.781 104.536H104.437V92.248H118.101V93.528ZM123.3 103.512C123.3 99.8213 123.834 96.984 124.9 95C125.967 92.9947 127.93 91.992 130.788 91.992C133.626 91.992 135.578 92.9947 136.644 95C137.711 96.984 138.244 99.8213 138.244 103.512C138.244 107.245 137.711 110.125 136.644 112.152C135.578 114.157 133.626 115.16 130.788 115.16C127.93 115.16 125.967 114.157 124.9 112.152C123.834 110.125 123.3 107.245 123.3 103.512ZM136.836 103.512C136.836 101.379 136.676 99.576 136.356 98.104C136.058 96.632 135.46 95.4693 134.564 94.616C133.69 93.7413 132.431 93.304 130.788 93.304C129.146 93.304 127.876 93.7413 126.98 94.616C126.106 95.4693 125.508 96.632 125.188 98.104C124.89 99.576 124.74 101.379 124.74 103.512C124.74 105.688 124.89 107.523 125.188 109.016C125.508 110.488 126.106 111.661 126.98 112.536C127.876 113.411 129.146 113.848 130.788 113.848C132.431 113.848 133.69 113.411 134.564 112.536C135.46 111.661 136.058 110.488 136.356 109.016C136.676 107.523 136.836 105.688 136.836 103.512ZM142.006 113.944C146.017 111.171 149.174 108.493 151.478 105.912C153.804 103.331 154.966 100.856 154.966 98.488C154.966 96.9307 154.55 95.6613 153.718 94.68C152.908 93.6987 151.574 93.208 149.718 93.208C147.862 93.208 146.444 93.7733 145.462 94.904C144.481 96.0347 143.926 97.528 143.798 99.384H142.39C142.54 97.0373 143.265 95.2133 144.566 93.912C145.868 92.6107 147.585 91.96 149.718 91.96C151.66 91.96 153.249 92.504 154.486 93.592C155.745 94.68 156.374 96.3013 156.374 98.456C156.374 101.123 155.148 103.811 152.694 106.52C150.262 109.229 147.478 111.619 144.342 113.688H157.11V114.904H142.006V113.944ZM179.656 102.36V103.608H167.623V102.36H179.656ZM196.22 102.2C196.754 100.792 197.66 99.64 198.94 98.744C200.22 97.848 201.767 97.4 203.58 97.4C205.202 97.4 206.642 97.7627 207.9 98.488C209.18 99.2133 210.172 100.248 210.876 101.592C211.602 102.936 211.964 104.504 211.964 106.296C211.964 108.088 211.602 109.667 210.876 111.032C210.172 112.376 209.18 113.421 207.9 114.168C206.642 114.893 205.202 115.256 203.58 115.256C201.767 115.256 200.21 114.808 198.908 113.912C197.628 113.016 196.732 111.864 196.22 110.456V115H194.78V91.32H196.22V102.2ZM210.492 106.296C210.492 104.717 210.194 103.352 209.596 102.2C208.999 101.048 208.156 100.173 207.068 99.576C206.002 98.9573 204.764 98.648 203.356 98.648C202.012 98.648 200.796 98.968 199.708 99.608C198.62 100.227 197.767 101.123 197.148 102.296C196.53 103.448 196.22 104.781 196.22 106.296C196.22 107.832 196.53 109.187 197.148 110.36C197.767 111.512 198.62 112.408 199.708 113.048C200.796 113.667 202.012 113.976 203.356 113.976C204.764 113.976 206.002 113.667 207.068 113.048C208.156 112.429 208.999 111.544 209.596 110.392C210.194 109.24 210.492 107.875 210.492 106.296ZM229.88 97.624L219.768 123.16H218.296L221.528 115L214.232 97.624H215.799L222.328 113.4L228.408 97.624H229.88ZM257.26 94.84C259.521 94.84 261.505 95.288 263.212 96.184C264.94 97.08 266.273 98.328 267.212 99.928C268.172 101.528 268.652 103.363 268.652 105.432C268.652 107.096 268.396 108.675 267.884 110.168C267.393 111.661 266.679 112.877 265.74 113.816C264.801 114.733 263.692 115.192 262.412 115.192C261.388 115.192 260.62 114.883 260.108 114.264C259.617 113.624 259.393 112.781 259.436 111.736C258.796 112.824 257.943 113.677 256.876 114.296C255.831 114.893 254.711 115.192 253.516 115.192C251.916 115.192 250.657 114.701 249.74 113.72C248.844 112.739 248.396 111.416 248.396 109.752C248.396 108.195 248.716 106.744 249.356 105.4C250.017 104.035 250.935 102.947 252.108 102.136C253.281 101.304 254.604 100.888 256.076 100.888C257.228 100.888 258.188 101.165 258.956 101.72C259.745 102.275 260.279 103.075 260.556 104.12L261.036 101.304H262.316L260.684 110.68C260.62 111.021 260.588 111.363 260.588 111.704C260.588 112.451 260.759 113.037 261.1 113.464C261.463 113.891 261.975 114.104 262.636 114.104C263.596 114.104 264.439 113.677 265.164 112.824C265.889 111.971 266.444 110.893 266.828 109.592C267.212 108.269 267.404 106.936 267.404 105.592C267.404 103.629 266.977 101.923 266.124 100.472C265.292 99.0213 264.097 97.9013 262.54 97.112C260.983 96.3227 259.159 95.928 257.068 95.928C254.487 95.928 252.14 96.5787 250.028 97.88C247.916 99.16 246.252 100.909 245.036 103.128C243.841 105.325 243.244 107.736 243.244 110.36C243.244 112.365 243.66 114.083 244.492 115.512C245.324 116.963 246.508 118.072 248.044 118.84C249.601 119.608 251.404 119.992 253.452 119.992C255.351 119.992 257.111 119.64 258.732 118.936L258.956 120.024C257.143 120.749 255.201 121.112 253.132 121.112C250.935 121.112 248.993 120.675 247.308 119.8C245.623 118.947 244.311 117.72 243.372 116.12C242.433 114.541 241.964 112.685 241.964 110.552C241.964 107.629 242.625 104.973 243.948 102.584C245.271 100.195 247.095 98.3067 249.42 96.92C251.745 95.5333 254.359 94.84 257.26 94.84ZM253.9 114.008C254.881 114.008 255.799 113.763 256.652 113.272C257.505 112.76 258.22 112.035 258.796 111.096C259.393 110.136 259.777 109.016 259.948 107.736C260.033 107.309 260.076 106.861 260.076 106.392C260.076 105.091 259.724 104.045 259.02 103.256C258.337 102.445 257.335 102.04 256.012 102.04C254.775 102.04 253.676 102.403 252.716 103.128C251.777 103.832 251.052 104.76 250.54 105.912C250.028 107.064 249.772 108.28 249.772 109.56C249.772 110.925 250.135 112.013 250.86 112.824C251.585 113.613 252.599 114.008 253.9 114.008ZM275.189 101.208C275.616 99.928 276.373 98.9573 277.461 98.296C278.549 97.6133 279.936 97.272 281.621 97.272V98.776H281.141C279.434 98.776 278.016 99.2667 276.885 100.248C275.754 101.208 275.189 102.787 275.189 104.984V115H273.749V97.624H275.189V101.208ZM292.809 97.272C294.857 97.272 296.531 97.912 297.833 99.192C299.134 100.451 299.785 102.328 299.785 104.824V115H298.377V104.92C298.377 102.851 297.854 101.272 296.809 100.184C295.763 99.0747 294.345 98.52 292.553 98.52C290.675 98.52 289.171 99.1173 288.041 100.312C286.931 101.507 286.377 103.277 286.377 105.624V115H284.937V91.32H286.377V101.304C286.867 100.003 287.689 99.0107 288.841 98.328C289.993 97.624 291.315 97.272 292.809 97.272ZM305.61 93.752C305.269 93.752 304.981 93.6453 304.746 93.432C304.511 93.1973 304.394 92.888 304.394 92.504C304.394 92.1413 304.511 91.8427 304.746 91.608C304.981 91.3733 305.269 91.256 305.61 91.256C305.951 91.256 306.239 91.3733 306.474 91.608C306.709 91.8427 306.826 92.1413 306.826 92.504C306.826 92.888 306.709 93.1973 306.474 93.432C306.239 93.6453 305.951 93.752 305.61 93.752ZM306.314 97.624V115H304.874V97.624H306.314ZM310.697 106.296C310.697 104.504 311.049 102.936 311.753 101.592C312.478 100.248 313.47 99.2133 314.729 98.488C316.009 97.7627 317.459 97.4 319.081 97.4C320.915 97.4 322.473 97.848 323.753 98.744C325.033 99.64 325.929 100.781 326.441 102.168V97.624H327.881V115H326.441V110.424C325.929 111.832 325.022 112.995 323.721 113.912C322.441 114.808 320.894 115.256 319.081 115.256C317.459 115.256 316.009 114.893 314.729 114.168C313.47 113.421 312.478 112.376 311.753 111.032C311.049 109.667 310.697 108.088 310.697 106.296ZM326.441 106.296C326.441 104.781 326.121 103.448 325.481 102.296C324.862 101.123 324.009 100.227 322.921 99.608C321.833 98.968 320.617 98.648 319.273 98.648C317.865 98.648 316.627 98.9573 315.561 99.576C314.494 100.173 313.662 101.048 313.065 102.2C312.467 103.352 312.169 104.717 312.169 106.296C312.169 107.875 312.467 109.24 313.065 110.392C313.662 111.544 314.494 112.429 315.561 113.048C316.649 113.667 317.886 113.976 319.273 113.976C320.617 113.976 321.833 113.667 322.921 113.048C324.03 112.408 324.894 111.512 325.513 110.36C326.131 109.187 326.441 107.832 326.441 106.296ZM340.964 97.272C343.033 97.272 344.719 97.912 346.02 99.192C347.321 100.451 347.972 102.328 347.972 104.824V115H346.564V104.92C346.564 102.851 346.041 101.272 344.996 100.184C343.951 99.0747 342.532 98.52 340.74 98.52C338.863 98.52 337.359 99.1173 336.228 100.312C335.119 101.507 334.564 103.277 334.564 105.624V115H333.124V97.624H334.564V101.304C335.055 100.003 335.865 99.0107 336.996 98.328C338.148 97.624 339.471 97.272 340.964 97.272ZM354.502 102.2C354.992 100.792 355.878 99.64 357.158 98.744C358.459 97.848 360.027 97.4 361.862 97.4C363.483 97.4 364.923 97.7627 366.182 98.488C367.462 99.2133 368.454 100.248 369.158 101.592C369.883 102.936 370.246 104.504 370.246 106.296C370.246 108.088 369.883 109.667 369.158 111.032C368.454 112.376 367.462 113.421 366.182 114.168C364.923 114.893 363.483 115.256 361.862 115.256C360.048 115.256 358.491 114.808 357.19 113.912C355.91 112.995 355.014 111.843 354.502 110.456V123.192H353.062V97.624H354.502V102.2ZM368.774 106.296C368.774 104.717 368.475 103.352 367.878 102.2C367.28 101.048 366.438 100.173 365.35 99.576C364.283 98.9573 363.046 98.648 361.638 98.648C360.294 98.648 359.078 98.968 357.99 99.608C356.902 100.227 356.048 101.123 355.43 102.296C354.811 103.448 354.502 104.781 354.502 106.296C354.502 107.832 354.811 109.187 355.43 110.36C356.048 111.512 356.902 112.408 357.99 113.048C359.078 113.667 360.294 113.976 361.638 113.976C363.046 113.976 364.283 113.667 365.35 113.048C366.438 112.429 367.28 111.544 367.878 110.392C368.475 109.24 368.774 107.875 368.774 106.296ZM373.697 106.296C373.697 104.504 374.049 102.936 374.753 101.592C375.478 100.248 376.47 99.2133 377.729 98.488C379.009 97.7627 380.459 97.4 382.081 97.4C383.915 97.4 385.473 97.848 386.753 98.744C388.033 99.64 388.929 100.781 389.441 102.168V97.624H390.881V115H389.441V110.424C388.929 111.832 388.022 112.995 386.721 113.912C385.441 114.808 383.894 115.256 382.081 115.256C380.459 115.256 379.009 114.893 377.729 114.168C376.47 113.421 375.478 112.376 374.753 111.032C374.049 109.667 373.697 108.088 373.697 106.296ZM389.441 106.296C389.441 104.781 389.121 103.448 388.481 102.296C387.862 101.123 387.009 100.227 385.921 99.608C384.833 98.968 383.617 98.648 382.273 98.648C380.865 98.648 379.627 98.9573 378.561 99.576C377.494 100.173 376.662 101.048 376.065 102.2C375.467 103.352 375.169 104.717 375.169 106.296C375.169 107.875 375.467 109.24 376.065 110.392C376.662 111.544 377.494 112.429 378.561 113.048C379.649 113.667 380.886 113.976 382.273 113.976C383.617 113.976 384.833 113.667 385.921 113.048C387.03 112.408 387.894 111.512 388.513 110.36C389.131 109.187 389.441 107.832 389.441 106.296ZM397.564 102.2C398.097 100.792 399.004 99.64 400.284 98.744C401.564 97.848 403.111 97.4 404.924 97.4C406.545 97.4 407.985 97.7627 409.244 98.488C410.524 99.2133 411.516 100.248 412.22 101.592C412.945 102.936 413.308 104.504 413.308 106.296C413.308 108.088 412.945 109.667 412.22 111.032C411.516 112.376 410.524 113.421 409.244 114.168C407.985 114.893 406.545 115.256 404.924 115.256C403.111 115.256 401.553 114.808 400.252 113.912C398.972 113.016 398.076 111.864 397.564 110.456V115H396.124V91.32H397.564V102.2ZM411.836 106.296C411.836 104.717 411.537 103.352 410.94 102.2C410.343 101.048 409.5 100.173 408.412 99.576C407.345 98.9573 406.108 98.648 404.7 98.648C403.356 98.648 402.14 98.968 401.052 99.608C399.964 100.227 399.111 101.123 398.492 102.296C397.873 103.448 397.564 104.781 397.564 106.296C397.564 107.832 397.873 109.187 398.492 110.36C399.111 111.512 399.964 112.408 401.052 113.048C402.14 113.667 403.356 113.976 404.7 113.976C406.108 113.976 407.345 113.667 408.412 113.048C409.5 112.429 410.343 111.544 410.94 110.392C411.537 109.24 411.836 107.875 411.836 106.296ZM419.095 91.32V115H417.655V91.32H419.095ZM432.022 115.256C430.401 115.256 428.939 114.893 427.638 114.168C426.337 113.443 425.313 112.408 424.566 111.064C423.841 109.699 423.478 108.109 423.478 106.296C423.478 104.504 423.851 102.936 424.598 101.592C425.345 100.227 426.369 99.192 427.67 98.488C428.993 97.7627 430.465 97.4 432.086 97.4C433.707 97.4 435.169 97.7627 436.47 98.488C437.771 99.192 438.785 100.216 439.51 101.56C440.257 102.904 440.63 104.483 440.63 106.296C440.63 108.109 440.257 109.699 439.51 111.064C438.763 112.408 437.729 113.443 436.406 114.168C435.105 114.893 433.643 115.256 432.022 115.256ZM432.022 113.976C433.281 113.976 434.454 113.699 435.542 113.144C436.651 112.568 437.537 111.704 438.198 110.552C438.859 109.4 439.19 107.981 439.19 106.296C439.19 104.632 438.859 103.224 438.198 102.072C437.537 100.92 436.662 100.067 435.574 99.512C434.486 98.936 433.313 98.648 432.054 98.648C430.795 98.648 429.622 98.936 428.534 99.512C427.467 100.067 426.603 100.92 425.942 102.072C425.281 103.224 424.95 104.632 424.95 106.296C424.95 107.981 425.27 109.4 425.91 110.552C426.571 111.704 427.435 112.568 428.502 113.144C429.59 113.699 430.763 113.976 432.022 113.976ZM443.111 93.56V92.248H447.847V115H446.407V93.56H443.111ZM451.392 93.56V92.248H456.128V115H454.688V93.56H451.392Z" fill="white"/>
</svg>
